# xmcd
#
# Track frame offsets:
#	150
#	18415
#	41042
#	59585
#	80090
#	100995
#	120910
#	142485
#	158317
#	180777
#
# Disc length: 2653 seconds
#
# Revision: 1
# Processed by: cddbd v1.5.1PL0 Copyright (c) Steve Scherf et al.
# Submitted via: CDex 1.50Beta5
#
DISCID=7d0a5b0a
DTITLE=中森明菜 - ANNIVERSARY〜FROM NEW YORK AND NASSAU
DYEAR=1991
DGENRE=Pop
TTITLE0=アサイラム
TTITLE1=まぶしい二人で
TTITLE2=Easy
TTITLE3=夢を見させて…
TTITLE4=北ウイング
TTITLE5=100。Cバカンス
TTITLE6=夏はざま
TTITLE7=メランコリー・フェスタ
TTITLE8=バレリーナ
TTITLE9=シャット・アウト
EXTD=
EXTT0=
EXTT1=
EXTT2=
EXTT3=
EXTT4=
EXTT5=
EXTT6=
EXTT7=
EXTT8=
EXTT9=
PLAYORDER=
